<svg xmlns="http://www.w3.org/2000/svg" viewBox="0 0 515.37 579.71"><defs><style>.cls-1{fill:#fff}</style></defs><g id="Layer_2" data-name="Layer 2"><g id="Vrstva_1" data-name="Vrstva 1"><path class="cls-1" d="M217.88 264.18A10.85 10.85 0 10207 253.34a10.86 10.86 0 0010.88 10.84zm0-17.69a6.85 6.85 0 11-6.84 6.85 6.85 6.85 0 016.84-6.85z"/><path class="cls-1" d="M299.87 281.63a20.63 20.63 0 005.93-15.14c0-14.58-10.81-24-27.54-24h-42v21.69h41.48a4.18 4.18 0 014.25 4.06 4 4 0 01-1.07 2.93 4.48 4.48 0 01-3.24 1.17h-70.66v2a18.79 18.79 0 0018.76 18.77h10.48v30.74h20.77v-30.7h22.78a4.89 4.89 0 013.41 1.41 4.43 4.43 0 011.31 3.12c0 2.74-1.87 4.52-4.75 4.52h-14.25v21.69h14.83c8.26 0 15.06-2.25 20.21-6.68s7.77-10.49 7.77-18-2.85-13.4-8.47-17.58zM298 314.18c-4.4 3.79-10.32 5.71-17.6 5.71h-10.87V306.2h10.27a8.48 8.48 0 006.27-14.47 8.89 8.89 0 00-6.24-2.58h-26.78v30.74h-12.77v-30.74H225.8a14.79 14.79 0 01-14.63-12.77h66.53a8.45 8.45 0 006.08-2.35 8 8 0 002.23-5.76 8.19 8.19 0 00-8.25-8.05h-37.48v-13.73h38c14.52 0 23.54 7.67 23.54 20 0 5.87-2.11 10.38-6.43 13.8l-2.28 1.81 2.5 1.48c5.89 3.5 8.75 8.61 8.75 15.64-.02 6.37-2.11 11.27-6.36 14.96z"/><path class="cls-1" d="M461.3 349.25V182.78a16.12 16.12 0 10-14.84-25.72L302.28 73.82a50.39 50.39 0 10-89.18 0L68.92 157.06a16.12 16.12 0 10-14.84 25.72v166.47a50.38 50.38 0 1044.58 77.23l144.17 83.24a16.13 16.13 0 1029.72 0l144.17-83.24a50.37 50.37 0 1044.58-77.23zm-327.82 3.35l-34.82 20.1a50.42 50.42 0 00-40.58-23.45V182.78a16.06 16.06 0 0010.84-6.27l64.56 37.28zm-75.4.65A46.36 46.36 0 0197.2 421l-39.12-22.56zM257.69 96.77a46.37 46.37 0 01-39.11-21.49l39.11-22.58 39.11 22.58a46.37 46.37 0 01-39.11 21.49zm0 47.61l33 19.06a124.39 124.39 0 00-66 0zm0 259A120.21 120.21 0 11377.9 283.19 120.34 120.34 0 01257.69 403.4zM149.16 222.84a123.46 123.46 0 00-11.68 29V216.1zm217.06 0l11.68-6.74v35.78a123.46 123.46 0 00-11.68-29.04zm-2-3.46a125.09 125.09 0 00-19.57-24.8l31.26 18zm-213 0l-11.68-6.75 31.25-18a125 125 0 00-19.63 24.75zm-13.74 95.12a124.07 124.07 0 0033.26 57.29l-33.26-19.2zm118.21 92.88v13.46l-31-17.9a124.36 124.36 0 0031 4.44zm4 0a124.36 124.36 0 0031-4.44l-31 17.9zM377.9 314.5v38.09l-33.26 19.21a124.29 124.29 0 0033.26-57.3zm4-100.71l64.56-37.28a16.06 16.06 0 0010.84 6.27v166.47a50.42 50.42 0 00-40.58 23.45l-34.82-20.1zm75.4 139.46v45.19L418.18 421a46.35 46.35 0 0139.12-67.77zm-12.86-192.73a16.11 16.11 0 000 12.54l-64.54 37.26-120.21-69.4v-40.2a50.41 50.41 0 0040.58-23.44zM211.3 50.39a46.39 46.39 0 1187.51 21.43l-41.12-23.74-41.12 23.74a46.06 46.06 0 01-5.27-21.43zm3.81 26.89a50.38 50.38 0 0040.58 23.44v40.2l-120.21 69.4-64.54-37.26a16.11 16.11 0 000-12.54zM56.08 446a46.39 46.39 0 01-2-92.73v47.5l41.11 23.73A46.39 46.39 0 0156.08 446zm44.58-23a50.22 50.22 0 000-46.86l34.82-20.1 120.21 69.4V500a16.14 16.14 0 00-10.85 6.27zm169.87 83.25a16.09 16.09 0 00-10.84-6.25v-74.54l120.21-69.4 34.81 20.1a50.19 50.19 0 000 46.86zM459.3 446a46.38 46.38 0 01-39.11-21.5l40.11-23.16 1-.57v-47.5a46.39 46.39 0 01-2 92.73z"/><circle class="cls-1" cx="7" cy="138.45" r="7"/><circle class="cls-1" cx="508.37" cy="138.46" r="7"/><circle class="cls-1" cx="257.69" cy="572.71" r="7"/></g></g></svg>