<svg xmlns="http://www.w3.org/2000/svg" viewBox="0 0 899.64 156.24"><g data-name="Layer 2"><path d="M323.29 100.84c0 8.56-3.08 15.43-9.12 20.76s-13.6 8-22.58 8h-41.24V31.41h38.43c8.84 0 16.14 2.66 22 7.85s9 11.93 9 20.2c0 7.86-2.81 14.31-8.56 19.22 8 5.19 12.07 12.48 12.07 22.16zm-50.5-48.39v17.39h16a8.29 8.29 0 008.56-8.7 8.28 8.28 0 00-8.56-8.69zm18.8 56.11c5.61 0 9.26-3.79 9.26-9.4s-3.65-9.4-9.26-9.4h-18.8v18.8zm43.76-58.92a12.61 12.61 0 010-17.81 12.59 12.59 0 0117.81 17.81 12.61 12.61 0 01-17.81 0zm-1.54 80V59.46h21v70.14zM389.07 103c2.39 6.59 8 9.82 16.83 9.82 5.76 0 10.24-1.83 13.47-5.33l16.83 9.67c-6.87 9.68-17.11 14.45-30.58 14.45-11.78 0-21.18-3.5-28.33-10.52s-10.52-15.85-10.52-26.51 3.5-19.36 10.38-26.37 16-10.66 26.93-10.66c10.24 0 18.66 3.5 25.39 10.66S439.71 84 439.71 94.53a40.89 40.89 0 01-.84 8.42zm29.74-15.71c-2.1-7.44-7-11.09-14.87-11.09-8.14 0-13.19 3.65-15.29 11.09zm92.57-22.08c5 5.19 7.58 12.21 7.58 21.32v43.07h-21v-40c0-8.28-5.05-12.76-12.21-12.76-8 0-13 4.9-13 14.44v38.3h-21V59.46h21v6.59c4.21-5.75 10.94-8.55 20.06-8.55 7.35 0 13.66 2.5 18.57 7.71zM552.2 103c2.38 6.59 8 9.82 16.83 9.82 5.75 0 10.24-1.83 13.47-5.33l16.83 9.67c-6.87 9.68-17.11 14.45-30.58 14.45-11.78 0-21.18-3.5-28.34-10.52q-10.51-10.51-10.52-26.51c0-10.52 3.51-19.36 10.39-26.37s16-10.66 26.93-10.66c10.24 0 18.65 3.5 25.39 10.66S602.84 84 602.84 94.53A40.89 40.89 0 01602 103zm29.74-15.71c-2.11-7.44-7-11.09-14.87-11.09-8.14 0-13.19 3.65-15.29 11.09zm99.45-55.88V53h-25.25v76.6h-22.45V53h-25.25V31.41zM696.67 103c2.39 6.59 8 9.82 16.83 9.82 5.75 0 10.24-1.83 13.47-5.33l16.83 9.67c-6.87 9.68-17.11 14.45-30.58 14.45-11.78 0-21.18-3.5-28.33-10.52s-10.52-15.85-10.52-26.51 3.5-19.36 10.38-26.37 16-10.66 26.93-10.66c10.24 0 18.66 3.5 25.39 10.66S747.31 84 747.31 94.53a40.89 40.89 0 01-.84 8.42zm29.74-15.71c-2.11-7.44-7-11.09-14.87-11.09-8.14 0-13.19 3.65-15.29 11.09zm39.13 33.61c-7-7.15-10.52-15.85-10.52-26.37s3.51-19.22 10.52-26.37c7.16-7.16 16-10.66 26.65-10.66a36.49 36.49 0 0131.71 18l-18.38 10.61c-2.53-5.19-7-7.85-13.61-7.85-9.12 0-15.85 6.73-15.85 16.27s6.73 16.27 15.85 16.27c6.6 0 11.22-2.66 13.61-7.85l18.38 10.52c-6.18 11.08-18.1 18.09-31.71 18.09-10.66 0-19.49-3.5-26.65-10.66zm126.52-55.69c5.05 5.19 7.58 12.21 7.58 21.32v43.07h-21v-40c0-8.28-5.05-12.76-12.21-12.76-8 0-13 4.9-13 14.44v38.3h-21V31.41h21v34.64c4.21-5.75 10.94-8.55 20.06-8.55 7.35 0 13.67 2.5 18.57 7.71zm-695.64 45.27c0 13.84-4.69 25-14.29 33.26s-22.32 12.5-38.17 12.5h-25.89v-35.71h24.78c8 0 13.61-5.35 13.61-13.16a13.42 13.42 0 00-13.56-13.18h-50v62.05H59V94.19H33.84A33.84 33.84 0 010 60.34h78.12v-.08h60.49c7.16 0 12.75-4.48 12.72-12.33a12.49 12.49 0 00-12.61-12.22H59V0h80.68c31.32 0 51.6 17 51.6 44.42 0 13.16-4.91 23.43-14.51 31 13.17 7.83 19.65 19.44 19.65 35.06zM17.86 0a17.86 17.86 0 1017.85 17.86A17.85 17.85 0 0017.86 0z" fill="#fff" data-name="Layer 1"/></g></svg>