<svg xmlns="http://www.w3.org/2000/svg" viewBox="0 0 649.29 314.83"><g data-name="Layer 2"><path d="M72.94 284.11c0 8.56-3.08 15.43-9.11 20.76s-13.61 8-22.59 8H0v-98.19h38.44c8.83 0 16.13 2.66 22 7.85s9 11.93 9 20.2c0 7.86-2.81 14.31-8.56 19.22 8 5.19 12.06 12.48 12.06 22.16zm-50.5-48.39v17.39h16c5.05 0 8.55-3.65 8.55-8.7a8.28 8.28 0 00-8.55-8.69zm18.8 56.11c5.61 0 9.26-3.79 9.26-9.4s-3.65-9.4-9.26-9.4h-18.8v18.8zM85 232.91a12.61 12.61 0 010-17.81 12.6 12.6 0 0117.82 17.81 12.62 12.62 0 01-17.82 0zm-1.54 80v-70.18h21v70.14zm55.26-26.69c2.39 6.59 8 9.82 16.84 9.82 5.75 0 10.24-1.83 13.46-5.33l16.83 9.67c-6.87 9.68-17.11 14.45-30.57 14.45-11.79 0-21.19-3.5-28.34-10.52s-10.52-15.85-10.52-26.51 3.51-19.36 10.38-26.37c7-7.16 16-10.66 26.93-10.66 10.24 0 18.66 3.5 25.39 10.66 6.88 7 10.24 15.85 10.24 26.37a40.89 40.89 0 01-.84 8.42zm29.74-15.71c-2.1-7.44-7-11.09-14.87-11.09-8.13 0-13.18 3.65-15.29 11.09zM261 248.48c5 5.19 7.57 12.21 7.57 21.32v43.07h-21v-40c0-8.28-5-12.76-12.2-12.76-8 0-13.05 4.9-13.05 14.44v38.3h-21v-70.12h21v6.59c4.21-5.75 10.94-8.55 20.06-8.55 7.43 0 13.75 2.52 18.62 7.71zm40.85 37.74c2.38 6.59 8 9.82 16.83 9.82 5.75 0 10.24-1.83 13.47-5.33l16.85 9.67c-6.87 9.68-17.11 14.45-30.58 14.45-11.78 0-21.18-3.5-28.33-10.52s-10.52-15.85-10.52-26.51 3.5-19.36 10.38-26.37c7-7.16 16-10.66 26.93-10.66 10.24 0 18.66 3.5 25.39 10.66 6.87 7 10.24 15.85 10.24 26.37a40.89 40.89 0 01-.84 8.42zm29.74-15.71c-2.11-7.44-7-11.09-14.87-11.09-8.14 0-13.19 3.65-15.29 11.09zM431 214.68v21.6h-25.21v76.59h-22.45v-76.59h-25.25v-21.6zm15.32 71.54c2.39 6.59 8 9.82 16.84 9.82 5.75 0 10.24-1.83 13.46-5.33l16.83 9.67c-6.87 9.68-17.11 14.45-30.57 14.45-11.79 0-21.19-3.5-28.34-10.52S424 288.46 424 277.8s3.51-19.36 10.38-26.37c7-7.16 16-10.66 26.93-10.66 10.24 0 18.66 3.5 25.39 10.66 6.87 7 10.24 15.85 10.24 26.37a40.89 40.89 0 01-.84 8.42zm29.74-15.71c-2.1-7.44-7-11.09-14.87-11.09-8.13 0-13.18 3.65-15.29 11.09zm39.13 33.66c-7-7.15-10.52-15.85-10.52-26.37s3.51-19.22 10.52-26.37 16-10.66 26.65-10.66a36.48 36.48 0 0131.71 18l-18.38 10.66c-2.52-5.19-7-7.85-13.61-7.85-9.11 0-15.85 6.73-15.85 16.27s6.74 16.27 15.85 16.27c6.6 0 11.23-2.66 13.61-7.85l18.38 10.52c-6.17 11.08-18.1 18.09-31.71 18.09-10.66-.05-19.49-3.55-26.65-10.71zm126.53-55.69c5 5.19 7.57 12.21 7.57 21.32v43.07h-21v-40c0-8.28-5-12.76-12.2-12.76-8 0-13 4.9-13 14.44v38.3H582v-98.17h21v34.64c4.21-5.75 10.94-8.55 20.06-8.55 7.43 0 13.75 2.52 18.66 7.71zm-218.87-138c0 13.84-4.68 25-14.28 33.26s-22.32 12.5-38.17 12.5h-25.89v-35.71h24.78c8 0 13.6-5.35 13.61-13.16a13.43 13.43 0 00-13.57-13.18h-50v62.05h-33.86V94.19h-25.19a33.84 33.84 0 01-33.84-33.85h78.12v-.08h60.49c7.16 0 12.75-4.48 12.72-12.33a12.5 12.5 0 00-12.62-12.22h-79.68V0h80.69c31.25 0 51.56 17 51.56 44.42 0 13.16-4.91 23.43-14.51 31 13.17 7.83 19.64 19.44 19.64 35.06zM244.29 0a17.86 17.86 0 1017.86 17.86A17.85 17.85 0 00244.29 0z" fill="#fff" data-name="Layer 1"/></g></svg>