<svg xmlns="http://www.w3.org/2000/svg" viewBox="0 0 515.37 628.57"><g data-name="Layer 2"><path d="M461.3 398.11V231.64a16.12 16.12 0 10-14.84-25.72l-133.71-77.19c0-.48-.07-1-.11-1.44-2-25.15-7.45-48.48-15.84-69.12l-.7-1.69-.37-.84c-.15-.37-.31-.72-.46-1.09-.46-1.07-.93-2.13-1.4-3.19a1.42 1.42 0 01-.08-.18c-8.33-18.42-19-34.25-31.93-47.14-.86-.93-1.86-1.85-2.8-2.74L257.69 0l-1.38 1.3c-.95.89-1.89 1.81-2.82 2.74-12.87 12.87-23.57 28.67-31.9 47.07l-.12.27c-.46 1-.92 2.06-1.36 3.11l-.51 1.17c-.11.27-.23.54-.35.81l-.7 1.69c-8.39 20.64-13.8 44-15.84 69.12 0 .48-.08 1-.11 1.44l-133.68 77.2a16.12 16.12 0 10-14.84 25.72v166.47a50.38 50.38 0 1044.58 77.23l144.17 83.24a16.13 16.13 0 1029.72 0l144.17-83.24a50.37 50.37 0 1044.58-77.23zm-110.41-11C339.26 392 331.4 402.89 330 415.88c-4.92-1.06-8.82-.59-11.61 1.4-2.52 1.79-4.06 4.77-4.6 8.85-5.17-.12-10.66 1.65-16.92 5.48-13.92-15.21-20.13-46.22-19-94.66a143.86 143.86 0 007.47-24l4.06 6 1.23-4c6.7-21.65 1-33.62-2.26-38.3.61-.27 1.23-.55 1.84-.84a6.1 6.1 0 003.24-3.76 6.43 6.43 0 00-.57-5.18l-2.31-3.87a6.31 6.31 0 00-1.07-1.34 5.43 5.43 0 00-.8-3.41l-2-3.22a5.51 5.51 0 00-.59-.76l1-7.31a42.4 42.4 0 004.35-1.79l.54-.26.31-.52a107.16 107.16 0 006.3-12.35c24.16 11.11 34 25.43 34.12 25.58l1.71 2.55 1.64-2.6a75.7 75.7 0 005.85-11.17 120 120 0 0123.93 138.19 32.36 32.36 0 00-14.97 2.48zm-201.33-2.54a120 120 0 0123.92-138.17 75.63 75.63 0 005.85 11.16l1.63 2.59 1.72-2.54c.1-.15 10-14.47 34.12-25.58a107.16 107.16 0 006.3 12.35l.31.52.54.26a44.77 44.77 0 004.35 1.8l1 7.31a6.36 6.36 0 00-.6.75l-2 3.22a5.43 5.43 0 00-.8 3.41 6.31 6.31 0 00-1.1 1.35l-2.28 3.94a6.43 6.43 0 00-.57 5.18 6.1 6.1 0 003.24 3.76l1.67.76c-3.31 4.62-9.06 16.57-2.31 38.38l1.23 4 4.05-6a145.21 145.21 0 007.53 24.11c1.15 48.36-5.06 79.32-19 94.53-6.26-3.83-11.69-5.6-16.92-5.48-.53-4.08-2.08-7.06-4.6-8.85-2.79-2-6.69-2.46-11.61-1.4-1.45-13-9.31-23.89-20.93-28.81a32.32 32.32 0 00-14.74-2.59zM58.08 231.64a16.09 16.09 0 0010.84-6.27l64.56 37.28v127.09a41.59 41.59 0 00-4.35 3c-3.27-7.27-10.39-13.16-19.24-15.73a30.36 30.36 0 00-26 3.83c-3-14.78-12.57-23.66-25.84-23.8zm115.24-10.85c2.15-7.7 13.14-22.28 30.36-40.32a208.92 208.92 0 007.19 35.18l.36 1.2c.28.92.57 1.83.86 2.72l.37 1.11c.88 2.61 1.82 5.15 2.8 7.61-19.6 9-30.09 19.85-34 24.63a66.05 66.05 0 01-4.59-9.54c-.37-.94-.7-1.86-1-2.76-.15-.45-.3-.9-.43-1.34q-.41-1.35-.72-2.61c-2.4-9.31-1.3-15.37-1.2-15.88zm-24.16 50.91a122.94 122.94 0 00-11.68 29.05V265zm2-3.46l-11.68-6.75 31.28-18.06a125 125 0 00-19.6 24.81zm-13.68 95.11a122.68 122.68 0 007.9 21.73 35 35 0 00-7.9 2.56zm95.23-105.8c.48.17.95.34 1.43.49l1.22.4 1.59.48 1.11.31 1.66.44 1.09.26c.55.13 1.11.27 1.67.38.38.09.75.16 1.13.23.54.11 1.07.22 1.61.31l1.27.2 1.47.23 1.57.19 1.17.13.93.08v.84a4.15 4.15 0 004.17 4h3.71a4.15 4.15 0 004.17-4v-.84l.93-.08 1.17-.13 1.57-.19 1.47-.23 1.27-.2c.54-.09 1.07-.2 1.61-.31.38-.07.76-.14 1.13-.23.56-.11 1.12-.25 1.67-.38l1.09-.26 1.66-.44 1.11-.31 1.59-.48 1.22-.4c.48-.15.95-.32 1.43-.49.25-.08.51-.16.76-.26l1.89 3a1.39 1.39 0 01.15 1.2 1.29 1.29 0 01-.16.35 1.41 1.41 0 01-.25.29 1.48 1.48 0 01-.34.21c-1.12.49-2.24.95-3.36 1.37a64.41 64.41 0 01-47.19 0c-1.12-.43-2.24-.88-3.36-1.37a1.94 1.94 0 01-.34-.21 1.41 1.41 0 01-.25-.29 1.7 1.7 0 01-.16-.35 1.39 1.39 0 01.15-1.2l1.89-3c.17.1.43.18.68.26zm-.2-9.34l.35.08 1.37.34.65.15c.54.13 1.09.24 1.64.35l.42.08c.7.14 1.41.26 2.13.38l.41.06 1.76.26.68.08c.53.07 1.05.13 1.59.18l.71.08 1.68.14.62.05c.73.05 1.47.1 2.22.13h.1l2.37.07h.16l.16 7h-.3l-.8-.08-1.76-.22-.82-.11-1.8-.29-.73-.13c-.68-.12-1.35-.26-2-.4l-.51-.11q-2.62-.59-5.25-1.36h-.1c-.8-.24-1.6-.5-2.4-.77l-.69-.24-1.14-.41zm21.4-65.21a9.44 9.44 0 017.55 0l-.17 7.67-.1 4.56-.27 12.62-.08 4-.8 36.75-.24 11.16-.09 2.6a.17.17 0 01-.17.17h-3.71a.17.17 0 01-.17-.17l-.09-2.6-.24-11.16-.8-36.75-.08-4-.27-12.61-.1-4.56zm9.93 74.63l.16-7h.16l2.36-.07h.13l2.2-.13.63-.05 1.67-.14.72-.08q.79-.07 1.56-.18l.71-.08 1.7-.25.47-.07 2.11-.37.49-.1 1.56-.33.69-.16 1.33-.33.37-.09-.7 5.27-1.12.4-.72.25c-.79.27-1.58.52-2.37.76h-.13c-1.74.52-3.49 1-5.23 1.36l-.52.11c-.67.14-1.34.28-2 .4l-.74.13-1.8.29-.82.11-1.76.22-.8.08zm-31.15 9.9a68.27 68.27 0 0050 0c1.19-.45 2.37-.94 3.56-1.45h.06a4.59 4.59 0 00.49-.26l.22-.13.31-.21.06-.05 2 3.47a2.45 2.45 0 01.22 2 2.17 2.17 0 01-1.12 1.33c-1.28.6-2.55 1.16-3.83 1.68-1.27.52-2.53 1-3.8 1.44l-.29.1q-1.69.58-3.39 1.08l-.8.22c-1 .27-1.93.53-2.9.76l-.92.21q-1.41.32-2.82.57l-.9.16c-1 .16-2 .31-2.94.43l-.75.09c-1.12.13-2.24.22-3.36.29h-.3a66 66 0 01-11.33-.32l-.58-.07q-1.56-.19-3.12-.45l-.77-.14c-1-.18-2-.38-3-.6l-.81-.19c-1-.23-2-.5-3-.78l-.72-.2c-1.11-.33-2.23-.69-3.34-1.07l-.35-.12a81.33 81.33 0 01-7.62-3.11 2.17 2.17 0 01-1.12-1.33 2.49 2.49 0 01.22-2l2-3.47.06.05.3.2.23.15a4.44 4.44 0 00.49.24h.06c1.23.57 2.41 1.06 3.6 1.51zm.24 40l-.64-5.29-5.07 7.46c-4.81-19.19 1.15-28.73 3.44-31.53l.25.1c.92.35 1.84.68 2.76 1l.85.28c.82.27 1.64.54 2.47.78l.84.24 2.33.63 1 .23q1.31.31 2.61.57l1 .18 2.31.39.89.13c.81.12 1.62.21 2.42.3l.92.09c.89.08 1.78.15 2.67.2h.86c.8 0 1.61.06 2.41.06h.64c.9 0 1.79 0 2.68-.06h.85c.91 0 1.82-.11 2.73-.19l.77-.08a69.2 69.2 0 002.47-.29l.54-.07c.93-.14 1.86-.3 2.79-.47l.82-.15c.91-.18 1.83-.38 2.75-.6l.71-.17c.84-.21 1.68-.43 2.52-.67l.51-.14c.95-.27 1.9-.57 2.85-.89l.7-.23c1-.33 1.93-.68 2.89-1l.14-.05c2.28 2.9 8.11 12.57 3.4 31.45l-5.07-7.46-.64 5.3c0 .27-3.45 26.93-24.64 59.61-21.23-32.67-24.66-59.39-24.73-59.66zm145-6.78a122.94 122.94 0 00-11.68-29.05l11.65-6.7zm-13.68-32.52a125 125 0 00-19.58-24.79l31.26 18.05zm-23.3-31.55c-.21.84-.45 1.71-.72 2.6-.14.44-.28.89-.43 1.34-.3.9-.63 1.82-1 2.77a68.4 68.4 0 01-4.61 9.53c-4-4.78-14.45-15.65-34.05-24.63 1-2.46 1.92-5 2.8-7.61.12-.37.25-.74.37-1.12.29-.89.58-1.79.86-2.71.12-.4.25-.8.36-1.2a207.94 207.94 0 007.19-35.18c17.22 18.05 28.22 32.63 30.36 40.33.07.5 1.22 6.53-1.16 15.88zm37 126.66v24.37a35.64 35.64 0 00-7.92-2.6 123.14 123.14 0 007.87-21.77zm4-100.69l64.56-37.28a16.09 16.09 0 0010.84 6.27V357.1c-13.36.07-23 8.93-26 23.73a30.36 30.36 0 00-26-3.83c-8.85 2.57-16 8.47-19.24 15.73a41.41 41.41 0 00-4.17-2.88zm62.54-53.27a16.11 16.11 0 000 12.54l-64.59 37.26-35.37-20.42c3.07-11.18 1.51-18.45 1.41-18.89v-.08c-3.22-11.75-22.17-32.62-33.67-44.5a269 269 0 00.82-41.76zM224.27 54.94c.18-.43.37-.86.56-1.29.45-1 .9-2 1.36-3l.24-.5c8.2-17.37 18.71-32.47 31.26-44.66C270.23 17.71 280.74 32.82 289 50.2l.21.45c.47 1 .93 2 1.39 3 .18.4.36.8.53 1.21s.41 1 .61 1.42c-22.57 11.24-45.44 11.24-68 0 .13-.43.33-.89.53-1.34zM222.14 60q17.7 8.75 35.55 8.76T293.23 60c8 19.81 13.24 42.17 15.3 66.28.05.44.08.88.12 1.32.1 1.17.18 2.35.26 3.52 1.95 29.14-1.06 58.63-8 82.43-.19.61-.37 1.22-.55 1.82l-.66 2.1c-.18.58-.37 1.15-.56 1.72q-1.55 4.67-3.31 9v.11a105.71 105.71 0 01-6.62 13.48 42.4 42.4 0 01-4 1.58l-.51.17c-1.57.51-3.23 1-5 1.35h-.08c-1.71.38-3.49.7-5.32 1h-.16c-.9.12-1.82.23-2.75.33h-.17c-.91.09-1.83.17-2.76.23h-.13c-.91.06-1.84.11-2.78.14H264l.75-34.58.09-4 .23-10.5.1-4.57.27-12.4-1.09-.57a13.69 13.69 0 00-13.49 0l-1.09.57.27 12.41.09 4.57.23 10.49.09 4 .75 34.58h-1.44c-.93 0-1.86-.08-2.77-.14h-.14c-.92-.06-1.84-.14-2.74-.23h-.18c-.93-.1-1.84-.21-2.75-.33h-.17q-2.75-.39-5.3-1h-.09c-1.73-.39-3.39-.84-5-1.35l-.51-.17a42.4 42.4 0 01-4-1.58 105.06 105.06 0 01-6.62-13.48v-.12c-1.17-2.87-2.28-5.86-3.3-9-.19-.57-.38-1.14-.56-1.72s-.45-1.39-.67-2.09-.36-1.21-.55-1.82c-6.95-23.8-10-53.29-8-82.43.08-1.18.16-2.35.26-3.53 0-.44.07-.88.12-1.31 2.11-24.09 7.34-46.46 15.35-66.28zm-19.84 73.54a268.87 268.87 0 00.82 41.75c-11.5 11.88-30.45 32.75-33.67 44.5v.08c-.1.44-1.67 7.71 1.42 18.89l-35.37 20.42-64.56-37.26a16.11 16.11 0 000-12.54zM58.08 402.11a46.35 46.35 0 0139.11 67.77L58.08 447.3zm-2 92.73a46.39 46.39 0 01-2-92.73v47.49l41.11 23.74a46.38 46.38 0 01-39.11 21.5zm214.45 60.28a16.09 16.09 0 00-25.69 0l-144.18-83.24a50.35 50.35 0 00-42.58-73.77V361c12.27.14 20.57 8.88 22.42 23.69l.46 3.71 2.83-2.4a26.28 26.28 0 0125-5.13c8.66 2.52 15.39 8.57 17.56 15.8l.9 3 2.34-2.06a41.78 41.78 0 013.91-3.05 34.9 34.9 0 014-2.42 31.47 31.47 0 019.76-3.26 26.38 26.38 0 014.34-.36 28.34 28.34 0 0111.18 2.28c10.91 4.61 18.08 15.24 18.69 27.74l.12 2.53 2.43-.71c4.82-1.4 8.37-1.33 10.54.21 1.87 1.34 2.92 4 3.11 7.83l.1 2.14 2.13-.26c5.24-.62 10.86 1.16 17.73 5.61l1.37.88 1.14-1.15c14.5-14.58 21.52-43.77 21.37-89.06a195.63 195.63 0 0014.42 25.36l1.66 2.48 1.67-2.48a196.26 196.26 0 0014.48-25.47c-.16 45.37 6.86 74.59 21.36 89.17l1.15 1.15 1.36-.88c6.87-4.45 12.51-6.23 17.73-5.61l2.13.26.1-2.14c.19-3.86 1.24-6.49 3.11-7.83 2.18-1.54 5.72-1.61 10.54-.21l2.43.71.13-2.53c.6-12.5 7.77-23.13 18.68-27.74a28.32 28.32 0 0111.36-2.27 26.37 26.37 0 014.33.37 31.8 31.8 0 019.77 3.33 35.21 35.21 0 014 2.45 41.62 41.62 0 013.73 2.93l2.34 2.06.9-3c2.17-7.23 8.9-13.29 17.56-15.8a26.28 26.28 0 0125 5.13l2.83 2.45.46-3.71c1.86-14.84 10.23-23.52 22.6-23.6v37a50.33 50.33 0 00-42.58 73.77zm186.77-153v45.18l-39.12 22.58a46.35 46.35 0 0139.12-67.77zm2 92.73a46.38 46.38 0 01-39.11-21.5l40.11-23.16 1-.58v-47.5a46.39 46.39 0 01-2 92.73zM7 194.31a7 7 0 117-7 7 7 0 01-7 7zm508.37-7a7 7 0 11-7-7 7 7 0 017 7.01zM264.69 621.57a7 7 0 11-7-7 7 7 0 017 7zm-7-466a28.5 28.5 0 10-28.51-28.5 28.53 28.53 0 0028.51 28.48zm0-53a24.5 24.5 0 11-24.51 24.5 24.53 24.53 0 0124.51-24.52zm8.66 8.22a.65.65 0 01-.25-.48.66.66 0 01.62-.69 7.3 7.3 0 012.41.24 4.36 4.36 0 01.59.17c.19.06.39.13.58.21a10.44 10.44 0 011.12.54 11.86 11.86 0 011.05.69 10.42 10.42 0 01.95.81 11.11 11.11 0 011.61 1.89 12.48 12.48 0 011.17 2.15 12.71 12.71 0 01.68 2.31 11 11 0 01.19 2.36 8.05 8.05 0 01-.41 2.39.69.69 0 01-.28.35.67.67 0 01-.92-.22v-.07c-.39-.62-.71-1.28-1-1.89l-.92-1.81c-.6-1.18-1.18-2.3-1.83-3.36a15.55 15.55 0 00-1-1.51 16 16 0 00-1.19-1.42 23.86 23.86 0 00-3-2.63zm11.27 15.36c.76-.12 1.51.71 1.69 1.84s-.31 2.15-1.07 2.27-1.51-.71-1.68-1.85.3-2.17 1.06-2.28zM148.13 185l-4.69-3.41 5.62 1.43 3.42-4.69-1.43 5.62 4.68 3.42-5.62-1.44-3.41 4.69zm207.49 2.54l-2.15-1.54 2.58.66 1.57-2.15-.66 2.58 2.15 1.56-2.58-.66-1.53 2.11zm-142 218.71l-.66 2.58 2.15 1.57-2.58-.66-1.56 2.15.66-2.58-2.15-1.56 2.57.65zM186 336.3l-2.15-1.57 2.58.66 1.57-2.15-.66 2.58 2.15 1.56-2.58-.65-1.56 2.15zm151.5-14.22l4.68 3.41-5.62-1.43-3.41 4.69 1.43-5.62-4.68-3.42 5.61 1.44 3.42-4.69zm89.34-15.26l-4.69-3.42 5.62 1.43 3.41-4.68-1.43 5.62 4.69 3.41-5.62-1.43-3.42 4.69zm-32.16-27.28l-3-2.21 3.64.93 2.22-3-.93 3.64 3 2.22-3.64-.93-2.22 3zm-86.25 117l3 2.22-3.64-.93-2.22 3 .93-3.65-3-2.21 3.65.93 2.21-3zm-99.75-117l-2.27-1.66 2.72.7 1.66-2.27-.7 2.72 2.27 1.65-2.72-.69-1.64 2.19zM77 323.55l-2.27-1.66 2.72.7 1.65-2.27-.68 2.68 2.27 1.65L78 324l-1.65 2.27zm224-71l2.27 1.65-2.72-.69-1.65 2.26.69-2.72-2.27-1.65 2.72.69 1.66-2.26zm-197.17 21.62l-4.69-3.42 5.62 1.43 3.42-4.68-1.44 5.62 4.69 3.41-5.62-1.43-3.41 4.68z" fill="#fff" data-name="Vrstva 1"/></g></svg>